# xmcd
#
# Track frame offsets:
#	150
#	29273
#	44661
#	82877
#	93974
#	104497
#	122243
#	156611
#	170970
#	199026
#	230988
#	238349
#	272184
#
# Disc length: 3767
#
# Revision: 3
# Processed by: cddbd v1.5.1PL0 Copyright (c) Steve Scherf et al.
# Submitted via: ExactAudioCopy v0.95a4
# Normalized: r2:TDELIM( - )
#
DISCID=c30eb50d
DTITLE=Classic Collection - Klasyka w kinie vol.1
DYEAR=1999
DGENRE=Classical
TTITLE0=Mozart - Eine kleine Nachtmusik - Allegro - Amadeusz
TTITLE1=Mozart - Eine kleine Nachtmusik - Rondo - Allegro - Amadeusz
TTITLE2=Mozart - Symfonia nr 29 - Allegro moderato - Amadeusz
TTITLE3=Mozart - Requiem - Confutatis - Amadeusz
TTITLE4=Mozart - Requiem - Rex tremendae - Amadeusz
TTITLE5=Mozart - Requiem - Tuba mirum - Amadeusz
TTITLE6=Rossini - Cyrulik sewilski - Uwertura - Honor Prizzich
TTITLE7=Leoncavallo - Pajace - Vesti la giubba - Nietykalni
TTITLE8=Haendel - Xerxes - Largo - Niebezpieczne zwiazki
TTITLE9=Haendel - Muzyka na wodzie - Suita Nr2 D-dur  - Andante - Stowarzyszenie umar³ych poetów
TTITLE10=Verdi - Trubadur - Chor cyganow - Noc w operze
TTITLE11=Mahler - V symfonia - Adagietto - Smierc w Wenecji
TTITLE12=Rossini - Wilhelm Tell - Uwertura - Mechaniczna pomarancza
EXTD=
EXTT0=
EXTT1=
EXTT2=
EXTT3=
EXTT4=
EXTT5=
EXTT6=
EXTT7=
EXTT8=
EXTT9=
EXTT10=
EXTT11=
EXTT12=
PLAYORDER=
